<?xml version="1.0" encoding="UTF-8" standalone="no"?>
<!-- Generator: Adobe Illustrator 26.3.1, SVG Export Plug-In . SVG Version: 6.00 Build 0)  -->

<svg
   version="1.1"
   id="Layer_1"
   x="0px"
   y="0px"
   viewBox="0 0 266.39999 88.800003"
   xml:space="preserve"
   sodipodi:docname="Artotzka-shield.svg"
   width="266.39999"
   height="88.800003"
   inkscape:version="1.3 (0e150ed6c4, 2023-07-21)"
   xmlns:inkscape="http://www.inkscape.org/namespaces/inkscape"
   xmlns:sodipodi="http://sodipodi.sourceforge.net/DTD/sodipodi-0.dtd"
   xmlns="http://www.w3.org/2000/svg"
   xmlns:svg="http://www.w3.org/2000/svg"><defs
   id="defs70" /><sodipodi:namedview
   id="namedview70"
   pagecolor="#ffffff"
   bordercolor="#000000"
   borderopacity="0.25"
   inkscape:showpageshadow="2"
   inkscape:pageopacity="0.0"
   inkscape:pagecheckerboard="0"
   inkscape:deskcolor="#d1d1d1"
   inkscape:zoom="2.3970588"
   inkscape:cx="353.1411"
   inkscape:cy="107.84049"
   inkscape:window-width="1920"
   inkscape:window-height="1051"
   inkscape:window-x="-9"
   inkscape:window-y="-9"
   inkscape:window-maximized="1"
   inkscape:current-layer="Layer_1_00000069398174894391805050000008855805519702290048_" />&#10;<style
   type="text/css"
   id="style1">&#10;	.st0{display:none;}&#10;	.st1{display:inline;}&#10;	.st2{fill:#3B483B;}&#10;	.st3{fill:#CC2E2E;}&#10;	.st4{fill:#FFFFFF;}&#10;</style>&#10;<g
   id="Layer_2_00000015356503110618695200000016576021317437237663_"
   class="st0"
   transform="translate(-122.8,-11.4)">&#10;	<rect
   y="0.69999999"
   class="st1"
   width="512"
   height="512"
   id="rect1"
   x="0" />&#10;</g>&#10;<g
   id="Layer_1_00000069398174894391805050000008855805519702290048_"
   transform="translate(-122.8,-11.4)">&#10;	<polygon
   class="st2"
   points="218.3,62.1 122.8,62.1 122.8,77.7 227.9,77.7 230.6,75 230.6,74.4 "
   id="polygon1" />&#10;	<polygon
   class="st2"
   points="122.8,55.4 211.5,55.4 196,39.8 122.8,39.8 "
   id="polygon2" />&#10;	<polygon
   class="st2"
   points="389.2,39.8 316.7,39.8 301.2,55.4 389.2,55.4 "
   id="polygon3" />&#10;	<g
   id="g4">&#10;		<polygon
   class="st3"
   points="252.1,64.3 264.8,51.6 264.8,47.3 260.6,47.3 247.9,60 247.9,64.3 "
   id="polygon4" />&#10;		<path
   class="st3"
   d="M 273.3,70.8 332.6,11.5 H 288.1 L 277.6,22 v 10.6 l -2.1,2.1 h -10.6 v -8.5 l 4.2,-4.2 2.1,-2.1 H 267 l -4.2,4.2 h -2.1 V 22 l 6.4,-6.4 h 2.1 L 265,11.4 h -2.8 l -5.7,6.4 H 250 l -2.1,2.1 v 14.8 h -10.6 l -2.1,-2.1 V 22 L 224.6,11.4 h -44.5 l 59.3,59.3 v 8.5 h -4.2 v 6.4 l 2.1,-2.1 h 4.2 v 4.2 l -2.1,2.1 h 6.4 l 10.7,10.4 10.4,-10.4 h 6.4 l -2.1,-2.1 v -4.2 h 4.2 l 2.1,2.1 v -6.4 h -4.2 V 70.8 Z M 271.2,62.2 256.4,77 241.6,62.2 V 38.8 l 4.2,4.2 h 6.4 l 4.2,-4.2 4.2,4.2 h 6.4 l 4.2,-4.2 z"
   id="path4" />&#10;	</g>&#10;	<g
   id="g69">&#10;		<g
   id="g68">&#10;			<g
   id="g66">&#10;				<g
   id="g5">&#10;					&#10;				</g>&#10;				<g
   id="g6">&#10;					&#10;				</g>&#10;				<g
   id="g7">&#10;					&#10;				</g>&#10;				<g
   id="g8">&#10;					&#10;				</g>&#10;				<g
   id="g9">&#10;					&#10;				</g>&#10;				<g
   id="g10">&#10;					&#10;				</g>&#10;				<g
   id="g11">&#10;					&#10;				</g>&#10;				<g
   id="g12">&#10;					&#10;				</g>&#10;				<g
   id="g13">&#10;					&#10;				</g>&#10;				<g
   id="g14">&#10;					&#10;				</g>&#10;				<g
   id="g15">&#10;					&#10;				</g>&#10;				<g
   id="g16">&#10;					&#10;				</g>&#10;				<g
   id="g17">&#10;					&#10;				</g>&#10;				<g
   id="g18">&#10;					&#10;				</g>&#10;				<g
   id="g19">&#10;					&#10;				</g>&#10;				<g
   id="g20">&#10;					&#10;				</g>&#10;				<g
   id="g21">&#10;					&#10;				</g>&#10;				<g
   id="g22">&#10;					&#10;				</g>&#10;				<g
   id="g23">&#10;					&#10;				</g>&#10;				<g
   id="g24">&#10;					&#10;				</g>&#10;				<g
   id="g25">&#10;					&#10;				</g>&#10;				<g
   id="g26">&#10;					&#10;				</g>&#10;				<g
   id="g27">&#10;					&#10;				</g>&#10;				<g
   id="g28">&#10;					&#10;				</g>&#10;				<g
   id="g29">&#10;					&#10;				</g>&#10;				<g
   id="g30">&#10;					&#10;				</g>&#10;				<g
   id="g31">&#10;					&#10;				</g>&#10;				<g
   id="g32">&#10;					&#10;				</g>&#10;				<g
   id="g33">&#10;					&#10;				</g>&#10;				<g
   id="g34">&#10;					&#10;				</g>&#10;				<g
   id="g35">&#10;					&#10;				</g>&#10;				<g
   id="g36">&#10;					&#10;				</g>&#10;				<g
   id="g37">&#10;					&#10;				</g>&#10;				<g
   id="g38">&#10;					&#10;				</g>&#10;				<g
   id="g39">&#10;					&#10;				</g>&#10;				<g
   id="g40">&#10;					&#10;				</g>&#10;				<g
   id="g41">&#10;					&#10;				</g>&#10;				<g
   id="g42">&#10;					&#10;				</g>&#10;				<g
   id="g43">&#10;					&#10;				</g>&#10;				<g
   id="g44">&#10;					&#10;				</g>&#10;				<g
   id="g45">&#10;					&#10;				</g>&#10;				<g
   id="g46">&#10;					&#10;				</g>&#10;				<g
   id="g47">&#10;					&#10;				</g>&#10;				<g
   id="g48">&#10;					&#10;				</g>&#10;				<g
   id="g49">&#10;					&#10;				</g>&#10;				<g
   id="g50">&#10;					&#10;				</g>&#10;				<g
   id="g51">&#10;					&#10;				</g>&#10;				<g
   id="g52">&#10;					&#10;				</g>&#10;				<g
   id="g53">&#10;					&#10;				</g>&#10;				<g
   id="g54">&#10;					&#10;				</g>&#10;				<g
   id="g55">&#10;					&#10;				</g>&#10;				<g
   id="g56">&#10;					&#10;				</g>&#10;				<g
   id="g57">&#10;					&#10;				</g>&#10;				<g
   id="g58">&#10;					&#10;				</g>&#10;				<g
   id="g59">&#10;					&#10;				</g>&#10;				<g
   id="g60">&#10;					&#10;				</g>&#10;				<g
   id="g61">&#10;					&#10;				</g>&#10;				<g
   id="g62">&#10;					&#10;				</g>&#10;				<g
   id="g63">&#10;					&#10;				</g>&#10;				<g
   id="g64">&#10;					&#10;				</g>&#10;				<g
   id="g65">&#10;					&#10;				</g>&#10;			</g>&#10;			<g
   id="g67">&#10;				&#10;			</g>&#10;		</g>&#10;	</g>&#10;	<polygon
   class="st2"
   points="122.8,33.2 189.2,33.2 173.7,17.7 122.8,17.7 "
   id="polygon69" />&#10;	<polygon
   class="st2"
   points="389.2,17.7 339,17.7 323.5,33.2 389.2,33.2 "
   id="polygon70" />&#10;	<path
   id="path70"
   class="st2"
   d="M 294.39961 62.099219 L 282.10078 74.4 L 282.10078 74.999609 L 284.8 77.700781 L 389.20039 77.700781 L 389.20039 62.099219 L 294.39961 62.099219 z " />&#10;</g>&#10;</svg>
